<mxfile host="Electron" agent="Mozilla/5.0 (Windows NT 10.0; Win64; x64) AppleWebKit/537.36 (KHTML, like Gecko) draw.io/27.0.9 Chrome/134.0.6998.205 Electron/35.4.0 Safari/537.36" version="27.0.9">
  <diagram name="第 1 页" id="umBSjE5xxVDXMMB-VYh8">
    <mxGraphModel dx="1213" dy="828" grid="1" gridSize="10" guides="1" tooltips="1" connect="1" arrows="1" fold="1" page="1" pageScale="1" pageWidth="827" pageHeight="1169" background="#FFFFFF" math="0" shadow="0">
      <root>
        <mxCell id="0" />
        <mxCell id="1" parent="0" />
        <mxCell id="EXmv1LLUtFSQL_-cPjJT-1" value="Display Manager" style="rounded=0;whiteSpace=wrap;html=1;fillColor=#dae8fc;strokeColor=#6c8ebf;fontSize=15;" parent="1" vertex="1">
          <mxGeometry x="130" y="10" width="100" height="180" as="geometry" />
        </mxCell>
        <mxCell id="EXmv1LLUtFSQL_-cPjJT-2" value="Image Reader - Background" style="rounded=0;whiteSpace=wrap;html=1;fillColor=#dae8fc;strokeColor=#6c8ebf;" parent="1" vertex="1">
          <mxGeometry x="250" y="10" width="160" height="30" as="geometry" />
        </mxCell>
        <mxCell id="EXmv1LLUtFSQL_-cPjJT-3" value="Block Memory (background.coe)" style="rounded=0;whiteSpace=wrap;html=1;fillColor=#e1d5e7;strokeColor=#9673a6;" parent="1" vertex="1">
          <mxGeometry x="430" y="10" width="160" height="30" as="geometry" />
        </mxCell>
        <mxCell id="EXmv1LLUtFSQL_-cPjJT-4" value="Image Reader - Title" style="rounded=0;whiteSpace=wrap;html=1;fillColor=#dae8fc;strokeColor=#6c8ebf;" parent="1" vertex="1">
          <mxGeometry x="250" y="60" width="160" height="30" as="geometry" />
        </mxCell>
        <mxCell id="EXmv1LLUtFSQL_-cPjJT-5" value="Block Memory (title.coe)" style="rounded=0;whiteSpace=wrap;html=1;fillColor=#e1d5e7;strokeColor=#9673a6;" parent="1" vertex="1">
          <mxGeometry x="430" y="60" width="160" height="30" as="geometry" />
        </mxCell>
        <mxCell id="EXmv1LLUtFSQL_-cPjJT-6" value="Image Reader - Hammer" style="rounded=0;whiteSpace=wrap;html=1;fillColor=#dae8fc;strokeColor=#6c8ebf;" parent="1" vertex="1">
          <mxGeometry x="250" y="110" width="160" height="30" as="geometry" />
        </mxCell>
        <mxCell id="EXmv1LLUtFSQL_-cPjJT-7" value="Block Memory (hammer.coe)" style="rounded=0;whiteSpace=wrap;html=1;fillColor=#e1d5e7;strokeColor=#9673a6;" parent="1" vertex="1">
          <mxGeometry x="430" y="110" width="160" height="30" as="geometry" />
        </mxCell>
        <mxCell id="EXmv1LLUtFSQL_-cPjJT-13" value="" style="endArrow=none;html=1;rounded=0;" parent="1" edge="1">
          <mxGeometry width="50" height="50" relative="1" as="geometry">
            <mxPoint x="230" y="24.799999999999997" as="sourcePoint" />
            <mxPoint x="250" y="25" as="targetPoint" />
          </mxGeometry>
        </mxCell>
        <mxCell id="EXmv1LLUtFSQL_-cPjJT-16" value="" style="endArrow=none;html=1;rounded=0;" parent="1" edge="1">
          <mxGeometry width="50" height="50" relative="1" as="geometry">
            <mxPoint x="230" y="75" as="sourcePoint" />
            <mxPoint x="250" y="75.2" as="targetPoint" />
          </mxGeometry>
        </mxCell>
        <mxCell id="EXmv1LLUtFSQL_-cPjJT-17" value="" style="endArrow=none;html=1;rounded=0;" parent="1" edge="1">
          <mxGeometry width="50" height="50" relative="1" as="geometry">
            <mxPoint x="230" y="124" as="sourcePoint" />
            <mxPoint x="250" y="124.19999999999999" as="targetPoint" />
          </mxGeometry>
        </mxCell>
        <mxCell id="EXmv1LLUtFSQL_-cPjJT-18" value="" style="endArrow=none;html=1;rounded=0;" parent="1" edge="1">
          <mxGeometry width="50" height="50" relative="1" as="geometry">
            <mxPoint x="410" y="124" as="sourcePoint" />
            <mxPoint x="430" y="124.19999999999999" as="targetPoint" />
          </mxGeometry>
        </mxCell>
        <mxCell id="EXmv1LLUtFSQL_-cPjJT-19" value="" style="endArrow=none;html=1;rounded=0;" parent="1" edge="1">
          <mxGeometry width="50" height="50" relative="1" as="geometry">
            <mxPoint x="410" y="24" as="sourcePoint" />
            <mxPoint x="430" y="24.200000000000003" as="targetPoint" />
          </mxGeometry>
        </mxCell>
        <mxCell id="EXmv1LLUtFSQL_-cPjJT-20" value="" style="endArrow=none;html=1;rounded=0;" parent="1" edge="1">
          <mxGeometry width="50" height="50" relative="1" as="geometry">
            <mxPoint x="410" y="74" as="sourcePoint" />
            <mxPoint x="430" y="74.2" as="targetPoint" />
          </mxGeometry>
        </mxCell>
        <mxCell id="EXmv1LLUtFSQL_-cPjJT-21" value="&lt;font style=&quot;font-size: 13px;&quot;&gt;...&lt;/font&gt;" style="rounded=0;whiteSpace=wrap;html=1;fillColor=#dae8fc;strokeColor=#6c8ebf;" parent="1" vertex="1">
          <mxGeometry x="250" y="160" width="340" height="30" as="geometry" />
        </mxCell>
        <mxCell id="EXmv1LLUtFSQL_-cPjJT-22" value="" style="endArrow=none;html=1;rounded=0;" parent="1" edge="1">
          <mxGeometry width="50" height="50" relative="1" as="geometry">
            <mxPoint x="230" y="174" as="sourcePoint" />
            <mxPoint x="250" y="174.2" as="targetPoint" />
          </mxGeometry>
        </mxCell>
        <mxCell id="EXmv1LLUtFSQL_-cPjJT-24" value="&lt;font style=&quot;font-size: 23px;&quot;&gt;Game&lt;/font&gt;" style="rounded=0;whiteSpace=wrap;html=1;fillColor=#f8cecc;strokeColor=#b85450;" parent="1" vertex="1">
          <mxGeometry x="10" y="220" width="450" height="80" as="geometry" />
        </mxCell>
        <mxCell id="EXmv1LLUtFSQL_-cPjJT-26" value="Sound Manager" style="rounded=0;whiteSpace=wrap;html=1;fillColor=#dae8fc;strokeColor=#6c8ebf;fontSize=15;" parent="1" vertex="1">
          <mxGeometry x="10" y="10" width="100" height="180" as="geometry" />
        </mxCell>
        <mxCell id="EXmv1LLUtFSQL_-cPjJT-29" value="Current Game State" style="text;strokeColor=none;fillColor=none;align=left;verticalAlign=middle;spacingLeft=4;spacingRight=4;overflow=hidden;points=[[0,0.5],[1,0.5]];portConstraint=eastwest;rotatable=0;whiteSpace=wrap;html=1;" parent="1" vertex="1">
          <mxGeometry x="60" y="190" width="120" height="30" as="geometry" />
        </mxCell>
        <mxCell id="EXmv1LLUtFSQL_-cPjJT-30" value="" style="endArrow=classic;html=1;rounded=0;entryX=0.5;entryY=1;entryDx=0;entryDy=0;" parent="1" edge="1">
          <mxGeometry width="50" height="50" relative="1" as="geometry">
            <mxPoint x="180" y="220" as="sourcePoint" />
            <mxPoint x="179.58000000000004" y="190" as="targetPoint" />
          </mxGeometry>
        </mxCell>
        <mxCell id="EXmv1LLUtFSQL_-cPjJT-31" value="" style="endArrow=classic;html=1;rounded=0;entryX=0.5;entryY=1;entryDx=0;entryDy=0;" parent="1" edge="1">
          <mxGeometry width="50" height="50" relative="1" as="geometry">
            <mxPoint x="59.41999999999996" y="220" as="sourcePoint" />
            <mxPoint x="59" y="190" as="targetPoint" />
          </mxGeometry>
        </mxCell>
        <mxCell id="EXmv1LLUtFSQL_-cPjJT-32" value="" style="rounded=0;whiteSpace=wrap;html=1;align=left;" parent="1" vertex="1">
          <mxGeometry x="100" y="330" width="490" height="200" as="geometry" />
        </mxCell>
        <mxCell id="EXmv1LLUtFSQL_-cPjJT-33" value="Drivers" style="text;strokeColor=none;fillColor=none;align=center;verticalAlign=middle;spacingLeft=4;spacingRight=4;overflow=hidden;points=[[0,0.5],[1,0.5]];portConstraint=eastwest;rotatable=0;whiteSpace=wrap;html=1;fontSize=18;" parent="1" vertex="1">
          <mxGeometry x="510" y="500" width="80" height="30" as="geometry" />
        </mxCell>
        <mxCell id="EXmv1LLUtFSQL_-cPjJT-36" value="&lt;font style=&quot;font-size: 23px;&quot;&gt;Hardware&lt;/font&gt;" style="rounded=0;whiteSpace=wrap;html=1;fillColor=#60a917;fontColor=#ffffff;strokeColor=#2D7600;" parent="1" vertex="1">
          <mxGeometry x="10" y="560" width="580" height="50" as="geometry" />
        </mxCell>
        <mxCell id="EXmv1LLUtFSQL_-cPjJT-37" value="" style="endArrow=classic;startArrow=classic;html=1;rounded=0;exitX=0.5;exitY=0;exitDx=0;exitDy=0;entryX=0.408;entryY=0.992;entryDx=0;entryDy=0;entryPerimeter=0;" parent="1" source="EXmv1LLUtFSQL_-cPjJT-36" target="EXmv1LLUtFSQL_-cPjJT-32" edge="1">
          <mxGeometry width="50" height="50" relative="1" as="geometry">
            <mxPoint x="310" y="550" as="sourcePoint" />
            <mxPoint x="360" y="500" as="targetPoint" />
          </mxGeometry>
        </mxCell>
        <mxCell id="EXmv1LLUtFSQL_-cPjJT-38" value="constraints.xdc" style="text;strokeColor=none;fillColor=none;align=left;verticalAlign=middle;spacingLeft=4;spacingRight=4;overflow=hidden;points=[[0,0.5],[1,0.5]];portConstraint=eastwest;rotatable=0;whiteSpace=wrap;html=1;" parent="1" vertex="1">
          <mxGeometry x="300" y="530" width="90" height="30" as="geometry" />
        </mxCell>
        <mxCell id="EXmv1LLUtFSQL_-cPjJT-39" value="PS/2 Recorder" style="rounded=0;whiteSpace=wrap;html=1;fillColor=#d5e8d4;strokeColor=#82b366;fontSize=14;" parent="1" vertex="1">
          <mxGeometry x="120" y="440" width="100" height="70" as="geometry" />
        </mxCell>
        <mxCell id="EXmv1LLUtFSQL_-cPjJT-40" value="PS/2 Mouse Driver" style="rounded=0;whiteSpace=wrap;html=1;fillColor=#d5e8d4;strokeColor=#82b366;fontSize=14;" parent="1" vertex="1">
          <mxGeometry x="120" y="350" width="100" height="70" as="geometry" />
        </mxCell>
        <mxCell id="EXmv1LLUtFSQL_-cPjJT-45" value="" style="endArrow=classic;startArrow=classic;html=1;rounded=0;" parent="1" edge="1">
          <mxGeometry width="50" height="50" relative="1" as="geometry">
            <mxPoint x="169.57999999999998" y="440" as="sourcePoint" />
            <mxPoint x="169.57999999999998" y="420" as="targetPoint" />
          </mxGeometry>
        </mxCell>
        <mxCell id="EXmv1LLUtFSQL_-cPjJT-46" value="Buzzer Driver" style="rounded=0;whiteSpace=wrap;html=1;fillColor=#d5e8d4;strokeColor=#82b366;fontSize=14;" parent="1" vertex="1">
          <mxGeometry x="240" y="350" width="100" height="160" as="geometry" />
        </mxCell>
        <mxCell id="EXmv1LLUtFSQL_-cPjJT-47" value="" style="endArrow=classic;startArrow=classic;html=1;rounded=0;exitX=0.5;exitY=0;exitDx=0;exitDy=0;" parent="1" edge="1">
          <mxGeometry width="50" height="50" relative="1" as="geometry">
            <mxPoint x="289.85999999999996" y="350" as="sourcePoint" />
            <mxPoint x="289.85999999999996" y="301" as="targetPoint" />
          </mxGeometry>
        </mxCell>
        <mxCell id="EXmv1LLUtFSQL_-cPjJT-49" value="VGA Driver" style="rounded=0;whiteSpace=wrap;html=1;fillColor=#d5e8d4;strokeColor=#82b366;fontSize=14;" parent="1" vertex="1">
          <mxGeometry x="360" y="350" width="130" height="160" as="geometry" />
        </mxCell>
        <mxCell id="EXmv1LLUtFSQL_-cPjJT-51" value="" style="endArrow=classic;startArrow=classic;html=1;rounded=0;exitX=0.5;exitY=0;exitDx=0;exitDy=0;" parent="1" edge="1">
          <mxGeometry width="50" height="50" relative="1" as="geometry">
            <mxPoint x="424.58" y="350" as="sourcePoint" />
            <mxPoint x="424.58" y="301" as="targetPoint" />
          </mxGeometry>
        </mxCell>
        <mxCell id="EXmv1LLUtFSQL_-cPjJT-52" value="Clocking Wizard" style="rounded=0;whiteSpace=wrap;html=1;fillColor=#e1d5e7;strokeColor=#9673a6;" parent="1" vertex="1">
          <mxGeometry x="370" y="470" width="110" height="30" as="geometry" />
        </mxCell>
        <mxCell id="EXmv1LLUtFSQL_-cPjJT-53" value="Random Generator （LFSR)&lt;span style=&quot;background-color: transparent; color: light-dark(rgb(0, 0, 0), rgb(255, 255, 255));&quot;&gt;&amp;nbsp;&lt;/span&gt;" style="rounded=0;whiteSpace=wrap;html=1;fillColor=#fff2cc;strokeColor=#d6b656;" parent="1" vertex="1">
          <mxGeometry x="480" y="220" width="110" height="80" as="geometry" />
        </mxCell>
        <mxCell id="EXmv1LLUtFSQL_-cPjJT-54" value="" style="endArrow=classic;html=1;rounded=0;exitX=0;exitY=0.5;exitDx=0;exitDy=0;entryX=1;entryY=0.5;entryDx=0;entryDy=0;" parent="1" source="EXmv1LLUtFSQL_-cPjJT-53" target="EXmv1LLUtFSQL_-cPjJT-24" edge="1">
          <mxGeometry width="50" height="50" relative="1" as="geometry">
            <mxPoint x="310" y="430" as="sourcePoint" />
            <mxPoint x="360" y="380" as="targetPoint" />
          </mxGeometry>
        </mxCell>
        <mxCell id="EXmv1LLUtFSQL_-cPjJT-58" value="" style="endArrow=classic;startArrow=classic;html=1;rounded=0;exitX=0.5;exitY=0;exitDx=0;exitDy=0;" parent="1" edge="1">
          <mxGeometry width="50" height="50" relative="1" as="geometry">
            <mxPoint x="170" y="350" as="sourcePoint" />
            <mxPoint x="170" y="301" as="targetPoint" />
          </mxGeometry>
        </mxCell>
        <mxCell id="EXmv1LLUtFSQL_-cPjJT-61" value="Clock" style="rounded=0;whiteSpace=wrap;html=1;fontSize=14;fillColor=#fff2cc;strokeColor=#d6b656;" parent="1" vertex="1">
          <mxGeometry x="10" y="440" width="70" height="90" as="geometry" />
        </mxCell>
        <mxCell id="EXmv1LLUtFSQL_-cPjJT-63" value="Clock Divider" style="rounded=0;whiteSpace=wrap;html=1;fontSize=14;fillColor=#fff2cc;strokeColor=#d6b656;" parent="1" vertex="1">
          <mxGeometry x="10" y="330" width="70" height="90" as="geometry" />
        </mxCell>
        <mxCell id="EXmv1LLUtFSQL_-cPjJT-65" value="" style="endArrow=classic;html=1;rounded=0;entryX=0.5;entryY=1;entryDx=0;entryDy=0;" parent="1" edge="1">
          <mxGeometry width="50" height="50" relative="1" as="geometry">
            <mxPoint x="45.41999999999996" y="560" as="sourcePoint" />
            <mxPoint x="45" y="530" as="targetPoint" />
          </mxGeometry>
        </mxCell>
        <mxCell id="EXmv1LLUtFSQL_-cPjJT-67" value="" style="endArrow=classic;html=1;rounded=0;entryX=0.5;entryY=1;entryDx=0;entryDy=0;" parent="1" edge="1">
          <mxGeometry width="50" height="50" relative="1" as="geometry">
            <mxPoint x="45" y="440" as="sourcePoint" />
            <mxPoint x="45" y="421" as="targetPoint" />
          </mxGeometry>
        </mxCell>
        <mxCell id="EXmv1LLUtFSQL_-cPjJT-70" value="" style="endArrow=classic;html=1;rounded=0;entryX=0.5;entryY=1;entryDx=0;entryDy=0;" parent="1" edge="1">
          <mxGeometry width="50" height="50" relative="1" as="geometry">
            <mxPoint x="45.41999999999996" y="330" as="sourcePoint" />
            <mxPoint x="45" y="300" as="targetPoint" />
          </mxGeometry>
        </mxCell>
        <mxCell id="EXmv1LLUtFSQL_-cPjJT-71" value="" style="endArrow=classic;html=1;rounded=0;exitX=1;exitY=0.5;exitDx=0;exitDy=0;" parent="1" source="EXmv1LLUtFSQL_-cPjJT-63" edge="1">
          <mxGeometry width="50" height="50" relative="1" as="geometry">
            <mxPoint x="80.41999999999996" y="440" as="sourcePoint" />
            <mxPoint x="100" y="375" as="targetPoint" />
          </mxGeometry>
        </mxCell>
        <mxCell id="AC6dSLRoPFVxvl-NGxF--3" value="" style="endArrow=classic;html=1;rounded=0;exitX=0.25;exitY=1;exitDx=0;exitDy=0;entryX=0.056;entryY=-0.008;entryDx=0;entryDy=0;entryPerimeter=0;" parent="1" edge="1">
          <mxGeometry width="50" height="50" relative="1" as="geometry">
            <mxPoint x="44" y="190" as="sourcePoint" />
            <mxPoint x="44.200000000000045" y="219.36" as="targetPoint" />
          </mxGeometry>
        </mxCell>
        <mxCell id="AC6dSLRoPFVxvl-NGxF--4" value="" style="endArrow=classic;html=1;rounded=0;exitX=0.25;exitY=1;exitDx=0;exitDy=0;entryX=0.056;entryY=-0.008;entryDx=0;entryDy=0;entryPerimeter=0;" parent="1" edge="1">
          <mxGeometry width="50" height="50" relative="1" as="geometry">
            <mxPoint x="196" y="190" as="sourcePoint" />
            <mxPoint x="196.20000000000005" y="219.36" as="targetPoint" />
          </mxGeometry>
        </mxCell>
        <mxCell id="AC6dSLRoPFVxvl-NGxF--8" value="" style="endArrow=none;html=1;rounded=0;entryX=0.076;entryY=0.009;entryDx=0;entryDy=0;entryPerimeter=0;startArrow=classic;startFill=0;dashed=1;" parent="1" target="EXmv1LLUtFSQL_-cPjJT-24" edge="1">
          <mxGeometry width="50" height="50" relative="1" as="geometry">
            <mxPoint x="290" y="299" as="sourcePoint" />
            <mxPoint x="190" y="240" as="targetPoint" />
            <Array as="points">
              <mxPoint x="290" y="280" />
              <mxPoint x="44" y="280" />
            </Array>
          </mxGeometry>
        </mxCell>
        <mxCell id="AC6dSLRoPFVxvl-NGxF--9" value="" style="endArrow=none;html=1;rounded=0;entryX=0.414;entryY=0.016;entryDx=0;entryDy=0;entryPerimeter=0;startArrow=classic;startFill=0;dashed=1;exitX=0.921;exitY=0.986;exitDx=0;exitDy=0;exitPerimeter=0;" parent="1" source="EXmv1LLUtFSQL_-cPjJT-24" target="EXmv1LLUtFSQL_-cPjJT-24" edge="1">
          <mxGeometry width="50" height="50" relative="1" as="geometry">
            <mxPoint x="426" y="299" as="sourcePoint" />
            <mxPoint x="180" y="221" as="targetPoint" />
            <Array as="points">
              <mxPoint x="424" y="240" />
              <mxPoint x="196" y="240" />
            </Array>
          </mxGeometry>
        </mxCell>
      </root>
    </mxGraphModel>
  </diagram>
</mxfile>
